<svg width="240" height="28" viewBox="0 0 240 28" fill="none" xmlns="http://www.w3.org/2000/svg">
<path d="M42.8898 28.0001V0.571533H51.3518V28.0001H42.8898Z" fill="#292E39"/>
<path d="M66.3053 0.571533H87.4025V7.77153H66.3053V0.571533ZM66.3053 12.8001H87.4025V18.8572H74.7674V28.0001H66.3053V12.8001Z" fill="#292E39"/>
<path d="M163.445 0.571533H184.542V7.77153H163.445V0.571533ZM163.445 12.8001H184.542V18.8572H171.907V28.0001H163.445V12.8001Z" fill="#292E39"/>
<path d="M109.543 28.0001V7.77153H101.313V0.571533H126.119V7.77153H117.889V28.0001H109.543Z" fill="#292E39"/>
<path d="M139.913 28.0001V0.571533H148.376V28.0001H139.913Z" fill="#292E39"/>
<path d="M206.682 28.0001V17.143L196.25 0.571533H205.755L210.971 9.82868L216.072 0.571533H225.577L215.26 17.143V28.0001H206.682Z" fill="#292E39"/>
<path d="M27.8204 0.571533V15.2001L19.3584 5.82868V0.571533H27.8204Z" fill="#292E39"/>
<path d="M0 5.14296V0.571533H7.18694L27.8204 23.543V28.0001H20.5176L0 5.14296Z" fill="#292E39"/>
<path d="M8.46204 22.6287V28.0001H0V13.2572L8.46204 22.6287Z" fill="#292E39"/>
<path d="M240 4.57143C240 2.02696 237.973 0 235.429 0C232.906 0 230.857 2.02696 230.857 4.57143C230.857 7.09434 232.906 9.14286 235.429 9.14286C237.973 9.14286 240 7.09434 240 4.57143ZM239.267 4.57143C239.267 6.68464 237.563 8.43127 235.429 8.43127C233.294 8.43127 231.569 6.68464 231.569 4.57143C231.569 2.4151 233.294 0.733155 235.429 0.733155C237.563 0.733155 239.267 2.4151 239.267 4.57143ZM237.607 7.20216L236.205 5.11051C236.507 5.11051 237.542 4.72237 237.542 3.55795C237.542 2.5876 236.679 1.96226 235.795 1.96226H233.66V7.20216H234.437V5.13208H235.299L236.658 7.20216H237.607ZM236.744 3.55795C236.744 4.09704 236.248 4.46361 235.795 4.46361H234.437V2.60916H235.795C236.248 2.60916 236.744 2.97574 236.744 3.55795Z" fill="#292E39"/>
</svg>
